<svg width="166" height="56" viewBox="0 0 166 56" fill="none" xmlns="http://www.w3.org/2000/svg">
<g clip-path="url(#clip0_1_727)">
<path fill-rule="evenodd" clip-rule="evenodd" d="M157.78 -0.171875H9.95195C1.1288 -0.171875 -0.339844 2.88646 -0.339844 10.1598V46.071C-0.339844 53.3388 2.68212 56.3378 9.94183 56.3378H157.78C165.045 56.3378 168.174 53.3347 168.174 46.0617V10.1598C168.174 2.88646 165.045 -0.171875 157.78 -0.171875Z" fill="black"/>
<path d="M82.4525 32.2397C79.3402 32.2397 76.8764 34.5766 76.8764 37.8219C76.8764 40.9376 79.3402 43.4042 82.4525 43.4042C85.5648 43.4042 88.0287 41.0674 88.0287 37.8219C88.0287 34.4466 85.5648 32.2397 82.4525 32.2397ZM82.4525 41.0674C80.7667 41.0674 79.3402 39.6393 79.3402 37.6921C79.3402 35.7447 80.7667 34.3166 82.4525 34.3166C84.1383 34.3166 85.5648 35.615 85.5648 37.6921C85.5648 39.6393 84.1383 41.0674 82.4525 41.0674ZM70.3925 32.2397C67.2803 32.2397 64.8163 34.5766 64.8163 37.8219C64.8163 40.9376 67.2803 43.4042 70.3925 43.4042C73.5048 43.4042 75.9686 41.0674 75.9686 37.8219C75.9686 34.4466 73.5048 32.2397 70.3925 32.2397ZM70.3925 41.0674C68.7066 41.0674 67.2803 39.6393 67.2803 37.6921C67.2803 35.7447 68.7066 34.3166 70.3925 34.3166C72.0783 34.3166 73.5048 35.615 73.5048 37.6921C73.5048 39.6393 72.0783 41.0674 70.3925 41.0674ZM55.9981 33.9274V36.2641H61.5744C61.4447 37.5625 60.926 38.6011 60.2776 39.2501C59.4996 40.0291 58.2028 40.9376 55.9981 40.9376C52.4969 40.9376 49.9034 38.2115 49.9034 34.7062C49.9034 31.2011 52.6265 28.475 55.9981 28.475C57.8138 28.475 59.2401 29.254 60.2776 30.1625L61.9634 28.475C60.5369 27.1766 58.7214 26.1382 56.1278 26.1382C51.4595 26.1382 47.4395 30.0329 47.4395 34.7062C47.4395 39.3797 51.4594 43.2746 56.1278 43.2746C58.7214 43.2746 60.5369 42.4954 62.093 40.8078C63.6492 39.2501 64.168 37.0432 64.168 35.3554C64.168 34.836 64.168 34.3168 64.0383 33.9274H55.9981ZM114.872 35.7448C114.353 34.4466 113.056 32.2397 110.204 32.2397C107.351 32.2397 105.017 34.4466 105.017 37.8219C105.017 40.9376 107.351 43.4042 110.463 43.4042C112.927 43.4042 114.483 41.8464 115.002 40.9376L113.186 39.6393C112.538 40.5482 111.76 41.1972 110.463 41.1972C109.166 41.1972 108.388 40.678 107.74 39.5095L115.131 36.3939L114.872 35.7448ZM107.351 37.5623C107.351 35.4852 109.037 34.3168 110.204 34.3168C111.111 34.3168 112.019 34.836 112.279 35.4852L107.351 37.5623ZM101.256 42.8848H103.72V26.6574H101.256V42.8848ZM97.3655 33.408C96.7171 32.759 95.6797 32.1098 94.3829 32.1098C91.6596 32.1098 89.066 34.5764 89.066 37.6921C89.066 40.8076 91.53 43.1446 94.3829 43.1446C95.6797 43.1446 96.7171 42.4954 97.2359 41.8462H97.3655V42.6252C97.3655 44.7025 96.1984 45.8707 94.3829 45.8707C92.9565 45.8707 91.919 44.8323 91.6597 43.9233L89.5849 44.8323C90.2332 46.2603 91.7893 48.0776 94.5128 48.0776C97.3657 48.0776 99.6997 46.3901 99.6997 42.3654V32.4993H97.3655V33.408ZM94.5126 41.0674C92.8268 41.0674 91.4003 39.6393 91.4003 37.6921C91.4003 35.7447 92.8268 34.3166 94.5126 34.3166C96.1982 34.3166 97.4952 35.7447 97.4952 37.6921C97.4952 39.6393 96.1984 41.0674 94.5126 41.0674ZM126.154 26.6574H120.318V42.8848H122.782V36.7835H126.154C128.877 36.7835 131.471 34.836 131.471 31.7203C131.471 28.6047 128.877 26.6574 126.154 26.6574ZM126.284 34.4466H122.782V28.8644H126.284C128.099 28.8644 129.137 30.4223 129.137 31.5904C129.007 33.0186 127.969 34.4466 126.284 34.4466ZM141.197 32.1099C139.381 32.1099 137.566 32.8889 136.917 34.5766L139.122 35.4854C139.641 34.5766 140.419 34.317 141.326 34.317C142.623 34.317 143.79 35.0961 143.92 36.394V36.5238C143.531 36.2641 142.493 35.8748 141.456 35.8748C139.122 35.8748 136.788 37.1732 136.788 39.5097C136.788 41.7167 138.733 43.1448 140.808 43.1448C142.493 43.1448 143.272 42.3656 143.92 41.5869H144.05V42.885H146.384V36.6538C146.125 33.7976 143.92 32.1099 141.197 32.1099ZM140.937 41.0674C140.159 41.0674 138.992 40.678 138.992 39.6393C138.992 38.3411 140.419 37.9517 141.586 37.9517C142.623 37.9517 143.142 38.2115 143.79 38.4711C143.531 40.0289 142.234 41.0674 140.937 41.0674ZM154.553 32.4993L151.83 39.5095H151.701L148.848 32.4993H146.254L150.534 42.3654L148.07 47.8181H150.534L157.147 32.4993H154.553ZM132.768 42.8848H135.232V26.6574H132.768V42.8848Z" fill="white"/>
<path d="M51.9611 17.0183H56.0015C56.0246 17.1105 56.0435 17.2219 56.0591 17.3525C56.0742 17.4832 56.082 17.6138 56.082 17.7443C56.082 18.2745 56.0015 18.7739 55.8403 19.2423C55.6792 19.711 55.4259 20.1297 55.0806 20.4983C54.7123 20.8902 54.2709 21.1939 53.7569 21.4088C53.2427 21.6237 52.6556 21.7314 51.9957 21.7314C51.3972 21.7314 50.833 21.6237 50.3036 21.4088C49.7741 21.1939 49.3136 20.8942 48.9223 20.5099C48.5308 20.1258 48.2201 19.6706 47.9899 19.1444C47.7596 18.6182 47.6445 18.044 47.6445 17.4217C47.6445 16.7994 47.7596 16.2252 47.9899 15.699C48.2201 15.1728 48.5308 14.7175 48.9223 14.3333C49.3136 13.9493 49.7741 13.6497 50.3036 13.4346C50.833 13.2195 51.3972 13.1118 51.9957 13.1118C52.6633 13.1118 53.26 13.227 53.7856 13.4575C54.3112 13.688 54.7621 14.0068 55.1382 14.414L54.0677 15.4626C53.7989 15.1786 53.4997 14.9613 53.1698 14.8116C52.8397 14.6617 52.4446 14.5869 51.9842 14.5869C51.6082 14.5869 51.2512 14.6542 50.9135 14.7885C50.5758 14.923 50.2805 15.1131 50.0273 15.3589C49.7741 15.6049 49.5726 15.9026 49.423 16.2519C49.2734 16.6016 49.1985 16.9915 49.1985 17.4217C49.1985 17.852 49.2734 18.2417 49.423 18.5913C49.5726 18.941 49.7758 19.2385 50.0331 19.4843C50.2901 19.7303 50.5875 19.9204 50.9252 20.0549C51.2627 20.1893 51.6233 20.2565 52.0071 20.2565C52.4446 20.2565 52.8148 20.1932 53.118 20.0663C53.421 19.9395 53.6802 19.7765 53.895 19.5765C54.0484 19.4382 54.1807 19.2636 54.2921 19.0522C54.4032 18.8411 54.4895 18.6047 54.5511 18.3435H51.9611V17.0183Z" fill="white"/>
<path d="M58.9251 14.7715V16.6843H62.2286V18.1594H58.9251V20.0724H62.597V21.5473H57.3711V13.2964H62.597V14.7715H58.9251Z" fill="white"/>
<path d="M65.7749 21.5473V14.7715H63.4727V13.2964H69.6311V14.7715H67.3289V21.5473H65.7749Z" fill="white"/>
<path d="M74.8216 13.2964H73.2676V21.5473H74.8216V13.2964Z" fill="white"/>
<path d="M78.23 21.5473V14.7715H75.9277V13.2964H82.0862V14.7715H79.784V21.5473H78.23Z" fill="white"/>
<path d="M89.395 21.7315C88.7811 21.7315 88.2113 21.62 87.6856 21.3973C87.1598 21.1746 86.7054 20.8693 86.3216 20.4812C85.9377 20.0933 85.6367 19.6362 85.4181 19.1098C85.1994 18.5838 85.0898 18.0208 85.0898 17.4217C85.0898 16.8223 85.1993 16.2597 85.4181 15.7335C85.6369 15.2073 85.9379 14.7503 86.3216 14.3622C86.7054 13.9743 87.1598 13.6689 87.6856 13.4461C88.2113 13.2233 88.7811 13.1118 89.395 13.1118C90.0088 13.1118 90.5788 13.2233 91.1046 13.4461C91.63 13.6689 92.0846 13.9743 92.4686 14.3622C92.8523 14.7503 93.1535 15.2073 93.3721 15.7335C93.5908 16.2597 93.7003 16.8223 93.7003 17.4217C93.7003 18.0208 93.5909 18.5838 93.3721 19.1098C93.1535 19.6362 92.8521 20.0933 92.4686 20.4812C92.0846 20.8693 91.63 21.1746 91.1046 21.3973C90.5788 21.62 90.0088 21.7315 89.395 21.7315ZM89.395 20.2565C89.7789 20.2565 90.1376 20.1873 90.4712 20.049C90.805 19.9108 91.0968 19.7188 91.3461 19.4728C91.5955 19.227 91.7912 18.9295 91.9332 18.5798C92.0751 18.2303 92.1462 17.8442 92.1462 17.4217C92.1462 16.9992 92.0751 16.6133 91.9332 16.2636C91.7912 15.914 91.5955 15.6165 91.3461 15.3705C91.0968 15.1247 90.805 14.9326 90.4712 14.7943C90.1375 14.656 89.7787 14.5869 89.395 14.5869C89.0113 14.5869 88.6526 14.656 88.3188 14.7943C87.985 14.9326 87.6933 15.1247 87.4439 15.3705C87.1944 15.6165 86.9988 15.914 86.857 16.2636C86.7149 16.6133 86.644 16.9992 86.644 17.4217C86.644 17.8442 86.7149 18.2303 86.857 18.5798C86.9988 18.9295 87.1944 19.227 87.4439 19.4728C87.6933 19.7188 87.985 19.9108 88.3188 20.049C88.6527 20.1873 89.0113 20.2565 89.395 20.2565Z" fill="white"/>
<path d="M94.9551 13.2964H96.7622L100.077 18.8277H100.17L100.077 17.2374V13.2964H101.62V21.5473H99.9853L96.486 15.7049H96.3938L96.486 17.2951V21.5473H94.9551V13.2964Z" fill="white"/>
<path fill-rule="evenodd" clip-rule="evenodd" d="M35.6439 23.1073L15.4727 11.4893L31.4059 27.3575L35.6439 23.1073Z" fill="white"/>
<path fill-rule="evenodd" clip-rule="evenodd" d="M13.6002 11.6074C13.5233 11.7474 13.4395 11.9091 13.4395 12.0873V44.9636C13.4395 45.0667 13.4931 45.1639 13.5206 45.2553L30.3943 28.3331L13.6002 11.6074Z" fill="white"/>
<path fill-rule="evenodd" clip-rule="evenodd" d="M31.4081 29.3052L14.8652 45.8958C14.9135 45.8771 14.9615 45.8554 15.0085 45.8284L35.9107 33.7891L31.4081 29.3052Z" fill="white"/>
<path fill-rule="evenodd" clip-rule="evenodd" d="M43.5501 27.6603L36.8806 23.8188L32.3828 28.3295L37.1497 33.0768L43.5501 29.3904C44.2165 29.0068 44.2165 28.0441 43.5501 27.6603Z" fill="white"/>
</g>
<defs>
<clipPath id="clip0_1_727">
<rect width="166" height="56" fill="white"/>
</clipPath>
</defs>
</svg>
